<svg width="207" height="47" viewBox="0 0 207 47" fill="none" xmlns="http://www.w3.org/2000/svg">
<path d="M-2.19345e-05 36V1.09091H12.2045C14.6363 1.09091 16.642 1.51136 18.2216 2.35227C19.8011 3.18182 20.9773 4.30114 21.75 5.71023C22.5227 7.10795 22.9091 8.65909 22.9091 10.3636C22.9091 11.8636 22.642 13.1023 22.1079 14.0795C21.5852 15.0568 20.892 15.8295 20.0284 16.3977C19.1761 16.9659 18.25 17.3864 17.25 17.6591V18C18.3182 18.0682 19.392 18.4432 20.4716 19.125C21.5511 19.8068 22.4545 20.7841 23.1818 22.0568C23.9091 23.3295 24.2727 24.8864 24.2727 26.7273C24.2727 28.4773 23.875 30.0511 23.0795 31.4489C22.2841 32.8466 21.0284 33.9545 19.3125 34.7727C17.5966 35.5909 15.3636 36 12.6136 36H-2.19345e-05ZM4.22725 32.25H12.6136C15.375 32.25 17.3352 31.7159 18.4943 30.6477C19.6648 29.5682 20.25 28.2614 20.25 26.7273C20.25 25.5455 19.9488 24.4545 19.3466 23.4545C18.7443 22.4432 17.8863 21.6364 16.7727 21.0341C15.6591 20.4205 14.3409 20.1136 12.8182 20.1136H4.22725V32.25ZM4.22725 16.4318H12.0682C13.3409 16.4318 14.4886 16.1818 15.5113 15.6818C16.5454 15.1818 17.3636 14.4773 17.9659 13.5682C18.5795 12.6591 18.8863 11.5909 18.8863 10.3636C18.8863 8.82955 18.3523 7.52841 17.2841 6.46023C16.2159 5.38068 14.5227 4.84091 12.2045 4.84091H4.22725V16.4318ZM71.8594 36V1.09091H83.6548C86.3934 1.09091 88.6321 1.58523 90.3707 2.57386C92.1207 3.55114 93.4162 4.875 94.2571 6.54545C95.098 8.21591 95.5184 10.0795 95.5184 12.1364C95.5184 14.1932 95.098 16.0625 94.2571 17.7443C93.4275 19.4261 92.1434 20.767 90.4048 21.767C88.6662 22.7557 86.4389 23.25 83.723 23.25H75.2684V19.5H83.5866C85.4616 19.5 86.9673 19.1761 88.1037 18.5284C89.24 17.8807 90.0639 17.0057 90.5753 15.9034C91.098 14.7898 91.3594 13.5341 91.3594 12.1364C91.3594 10.7386 91.098 9.48864 90.5753 8.38636C90.0639 7.28409 89.2344 6.42045 88.0866 5.79545C86.9389 5.15909 85.4162 4.84091 83.5184 4.84091H76.0866V36H71.8594Z" fill="#FFD557"/>
<path d="M30.6733 36V9.81818H34.696V36H30.6733ZM32.7187 5.45455C31.9346 5.45455 31.2585 5.1875 30.6903 4.65341C30.1335 4.11932 29.8551 3.47727 29.8551 2.72727C29.8551 1.97727 30.1335 1.33523 30.6903 0.801135C31.2585 0.267045 31.9346 0 32.7187 0C33.5028 0 34.1733 0.267045 34.7301 0.801135C35.2983 1.33523 35.5824 1.97727 35.5824 2.72727C35.5824 3.47727 35.2983 4.11932 34.7301 4.65341C34.1733 5.1875 33.5028 5.45455 32.7187 5.45455ZM52.6321 46.3636C50.6889 46.3636 49.0184 46.1136 47.6207 45.6136C46.223 45.125 45.0582 44.4773 44.1264 43.6705C43.2059 42.875 42.473 42.0227 41.9275 41.1136L45.1321 38.8636C45.4957 39.3409 45.9559 39.8864 46.5128 40.5C47.0696 41.125 47.8309 41.6648 48.7969 42.1193C49.7741 42.5852 51.0525 42.8182 52.6321 42.8182C54.7457 42.8182 56.49 42.3068 57.865 41.2841C59.24 40.2614 59.9275 38.6591 59.9275 36.4773V31.1591H59.5866C59.2912 31.6364 58.8707 32.2273 58.3253 32.9318C57.7912 33.625 57.0184 34.2443 56.0071 34.7898C55.0071 35.3239 53.6548 35.5909 51.9503 35.5909C49.8366 35.5909 47.9389 35.0909 46.2571 34.0909C44.5866 33.0909 43.2628 31.6364 42.2855 29.7273C41.3196 27.8182 40.8366 25.5 40.8366 22.7727C40.8366 20.0909 41.3082 17.7557 42.2514 15.767C43.1946 13.767 44.5071 12.2216 46.1889 11.1307C47.8707 10.0284 49.8139 9.47727 52.0184 9.47727C53.723 9.47727 55.0753 9.76136 56.0753 10.3295C57.0866 10.8864 57.8594 11.5227 58.3934 12.2386C58.9389 12.9432 59.3594 13.5227 59.6548 13.9773H60.0639V9.81818H63.9503V36.75C63.9503 39 63.4389 40.8295 62.4162 42.2386C61.4048 43.6591 60.0412 44.6989 58.3253 45.358C56.6207 46.0284 54.723 46.3636 52.6321 46.3636ZM52.4957 31.9773C54.1094 31.9773 55.473 31.608 56.5866 30.8693C57.7003 30.1307 58.5469 29.0682 59.1264 27.6818C59.7059 26.2955 59.9957 24.6364 59.9957 22.7045C59.9957 20.8182 59.7116 19.1534 59.1434 17.7102C58.5753 16.267 57.7344 15.1364 56.6207 14.3182C55.5071 13.5 54.1321 13.0909 52.4957 13.0909C50.7912 13.0909 49.3707 13.5227 48.2344 14.3864C47.1094 15.25 46.2628 16.4091 45.6946 17.8636C45.1378 19.3182 44.8594 20.9318 44.8594 22.7045C44.8594 24.5227 45.1434 26.1307 45.7116 27.5284C46.2912 28.9148 47.1434 30.0057 48.2684 30.8011C49.4048 31.5852 50.8139 31.9773 52.4957 31.9773ZM109.487 36.6136C107.828 36.6136 106.322 36.3011 104.97 35.6761C103.618 35.0398 102.544 34.125 101.749 32.9318C100.953 31.7273 100.555 30.2727 100.555 28.5682C100.555 27.0682 100.851 25.8523 101.442 24.9205C102.033 23.9773 102.822 23.2386 103.811 22.7045C104.8 22.1705 105.891 21.7727 107.084 21.5114C108.288 21.2386 109.499 21.0227 110.714 20.8636C112.305 20.6591 113.595 20.5057 114.584 20.4034C115.584 20.2898 116.311 20.1023 116.766 19.8409C117.232 19.5795 117.464 19.125 117.464 18.4773V18.3409C117.464 16.6591 117.004 15.3523 116.084 14.4205C115.175 13.4886 113.794 13.0227 111.942 13.0227C110.021 13.0227 108.516 13.4432 107.425 14.2841C106.334 15.125 105.567 16.0227 105.124 16.9773L101.305 15.6136C101.987 14.0227 102.896 12.7841 104.033 11.8977C105.18 11 106.43 10.375 107.783 10.0227C109.146 9.65909 110.487 9.47727 111.805 9.47727C112.646 9.47727 113.612 9.57955 114.703 9.78409C115.805 9.97727 116.868 10.3807 117.891 10.9943C118.925 11.608 119.783 12.5341 120.464 13.7727C121.146 15.0114 121.487 16.6705 121.487 18.75V36H117.464V32.4545H117.26C116.987 33.0227 116.533 33.6307 115.896 34.2784C115.26 34.9261 114.413 35.4773 113.357 35.9318C112.3 36.3864 111.01 36.6136 109.487 36.6136ZM110.101 33C111.692 33 113.033 32.6875 114.124 32.0625C115.226 31.4375 116.055 30.6307 116.612 29.642C117.18 28.6534 117.464 27.6136 117.464 26.5227V22.8409C117.294 23.0455 116.919 23.233 116.339 23.4034C115.771 23.5625 115.112 23.7045 114.362 23.8295C113.624 23.9432 112.902 24.0455 112.197 24.1364C111.504 24.2159 110.942 24.2841 110.51 24.3409C109.464 24.4773 108.487 24.6989 107.578 25.0057C106.68 25.3011 105.953 25.75 105.396 26.3523C104.851 26.9432 104.578 27.75 104.578 28.7727C104.578 30.1705 105.095 31.2273 106.129 31.9432C107.175 32.6477 108.499 33 110.101 33ZM132.852 20.25V36H128.83V9.81818H132.716V13.9091H133.057C133.67 12.5795 134.602 11.5114 135.852 10.7045C137.102 9.88636 138.716 9.47727 140.693 9.47727C142.466 9.47727 144.017 9.84091 145.347 10.5682C146.676 11.2841 147.71 12.375 148.449 13.8409C149.187 15.2955 149.557 17.1364 149.557 19.3636V36H145.534V19.6364C145.534 17.5795 145 15.9773 143.932 14.8295C142.864 13.6705 141.398 13.0909 139.534 13.0909C138.25 13.0909 137.102 13.3693 136.091 13.9261C135.091 14.483 134.301 15.2955 133.722 16.3636C133.142 17.4318 132.852 18.7273 132.852 20.25ZM166.794 36.5455C164.612 36.5455 162.686 35.9943 161.016 34.892C159.345 33.7784 158.038 32.2102 157.095 30.1875C156.152 28.1534 155.68 25.75 155.68 22.9773C155.68 20.2273 156.152 17.8409 157.095 15.8182C158.038 13.7955 159.351 12.233 161.033 11.1307C162.714 10.0284 164.658 9.47727 166.862 9.47727C168.567 9.47727 169.913 9.76136 170.902 10.3295C171.902 10.8864 172.663 11.5227 173.186 12.2386C173.72 12.9432 174.135 13.5227 174.43 13.9773H174.771V1.09091H178.794V36H174.908V31.9773H174.43C174.135 32.4545 173.714 33.0568 173.169 33.7841C172.624 34.5 171.845 35.142 170.834 35.7102C169.822 36.267 168.476 36.5455 166.794 36.5455ZM167.339 32.9318C168.953 32.9318 170.317 32.5114 171.43 31.6705C172.544 30.8182 173.391 29.642 173.97 28.142C174.55 26.6307 174.839 24.8864 174.839 22.9091C174.839 20.9545 174.555 19.2443 173.987 17.7784C173.419 16.3011 172.578 15.1534 171.464 14.3352C170.351 13.5057 168.976 13.0909 167.339 13.0909C165.635 13.0909 164.214 13.5284 163.078 14.4034C161.953 15.267 161.107 16.4432 160.538 17.9318C159.982 19.4091 159.703 21.0682 159.703 22.9091C159.703 24.7727 159.987 26.4659 160.555 27.9886C161.135 29.5 161.987 30.7045 163.112 31.6023C164.249 32.4886 165.658 32.9318 167.339 32.9318ZM194.425 36.6136C192.766 36.6136 191.26 36.3011 189.908 35.6761C188.555 35.0398 187.482 34.125 186.686 32.9318C185.891 31.7273 185.493 30.2727 185.493 28.5682C185.493 27.0682 185.788 25.8523 186.379 24.9205C186.97 23.9773 187.76 23.2386 188.749 22.7045C189.737 22.1705 190.828 21.7727 192.021 21.5114C193.226 21.2386 194.436 21.0227 195.652 20.8636C197.243 20.6591 198.533 20.5057 199.521 20.4034C200.521 20.2898 201.249 20.1023 201.703 19.8409C202.169 19.5795 202.402 19.125 202.402 18.4773V18.3409C202.402 16.6591 201.942 15.3523 201.021 14.4205C200.112 13.4886 198.732 13.0227 196.879 13.0227C194.959 13.0227 193.453 13.4432 192.362 14.2841C191.271 15.125 190.504 16.0227 190.061 16.9773L186.243 15.6136C186.925 14.0227 187.834 12.7841 188.97 11.8977C190.118 11 191.368 10.375 192.72 10.0227C194.084 9.65909 195.425 9.47727 196.743 9.47727C197.584 9.47727 198.55 9.57955 199.641 9.78409C200.743 9.97727 201.805 10.3807 202.828 10.9943C203.862 11.608 204.72 12.5341 205.402 13.7727C206.084 15.0114 206.425 16.6705 206.425 18.75V36H202.402V32.4545H202.197C201.925 33.0227 201.47 33.6307 200.834 34.2784C200.197 34.9261 199.351 35.4773 198.294 35.9318C197.237 36.3864 195.947 36.6136 194.425 36.6136ZM195.038 33C196.629 33 197.97 32.6875 199.061 32.0625C200.163 31.4375 200.993 30.6307 201.55 29.642C202.118 28.6534 202.402 27.6136 202.402 26.5227V22.8409C202.232 23.0455 201.857 23.233 201.277 23.4034C200.709 23.5625 200.05 23.7045 199.3 23.8295C198.561 23.9432 197.839 24.0455 197.135 24.1364C196.442 24.2159 195.879 24.2841 195.447 24.3409C194.402 24.4773 193.425 24.6989 192.516 25.0057C191.618 25.3011 190.891 25.75 190.334 26.3523C189.788 26.9432 189.516 27.75 189.516 28.7727C189.516 30.1705 190.033 31.2273 191.067 31.9432C192.112 32.6477 193.436 33 195.038 33Z" fill="black"/>
</svg>
